# xmcd
#
# Track frame offsets:
#	150
#	11850
#	23380
#	37000
#	48025
#	59007
#	65388
#	77343
#	84391
#	93988
#	99363
#	107527
#	113422
#	123680
#	130808
#	147594
#
# Disc length: 2094 seconds
#
# Revision: 1
# Processed by: cddbd v1.5.2PL0 Copyright (c) Steve Scherf et al.
# Submitted via: EZCDAudioConverter 2.1.7.1
#
DISCID=c6082c10
DTITLE=V/A - Music For TV Dinners: The '60s
DYEAR=1900
DGENRE=
TTITLE0=Syd Dale - Disc A Go Go
TTITLE1=Gerhard Narholz and Jurgen Jaenner - Pop Promotion
TTITLE2=James Clarke - The Free Life
TTITLE3=Syd Dale - The Riviera Set
TTITLE4=Manfred Minnich - Shopping Centre
TTITLE5=Alan Hawkshaw and Keith Mansfield - Piccadilly Night Ride
TTITLE6=Wolfgang Kaltenbach - Party Shaker
TTITLE7=Neil Richardson - Rio Magic
TTITLE8=Syd Dale - Beauty Parade
TTITLE9=Alan Hawkshaw - Holiday Commercial
TTITLE10=Keith Mansfield - Sporting Highlights
TTITLE11=Alan Hawkshaw - Convenience Shopping
TTITLE12=Syd Dale - Mexican Ding Dong
TTITLE13=Laurie Johnson - Chase That Car
TTITLE14=Johnny Scott - Roses Today
TTITLE15=Johnny Pearson - Pop March
EXTD=
EXTT0=
EXTT1=
EXTT2=
EXTT3=
EXTT4=
EXTT5=
EXTT6=
EXTT7=
EXTT8=
EXTT9=
EXTT10=
EXTT11=
EXTT12=
EXTT13=
EXTT14=
EXTT15=
PLAYORDER=
